<svg width="62" height="379" viewBox="0 0 62 379" fill="none" xmlns="http://www.w3.org/2000/svg">
<path d="M26.859 33.7773L22.7441 26.7145L26.859 19.6013L35.1394 19.6013L39.2543 26.7145L35.1394 33.7773L26.859 33.7773Z" fill="#ED1C24"/>
<path d="M44.3348 33.1724L38.5436 33.1724L42.3028 26.6645L27.0627 0.582633L15.8358 0.582633L0.646483 26.715L2.5261 29.8932L17.7662 3.71044L25.2339 3.71044L28.0787 8.70485L20.611 8.70485L5.42172 34.8876L7.30133 38.1163L22.4906 11.9336L29.9583 11.9336L32.8539 16.928L25.3863 16.928L10.197 43.1612L15.8358 52.7969L46.1636 52.7969L48.0432 49.5682L17.6646 49.5682L13.9054 43.1108L16.8518 38.0659L20.611 44.5233L50.9388 44.5233L52.8185 41.2946L22.4398 41.2946L18.6806 34.7867L21.5762 29.7923L25.3863 36.3002L55.7141 36.3002L61.3529 26.6141L46.1636 0.481737L42.4552 0.481737L57.6445 26.6141L53.8345 33.1219L48.0432 33.1219L51.8532 26.6141L36.6131 0.481737L32.9047 0.481738L48.1448 26.6141L44.3348 33.1724ZM27.2659 33.1724L23.4558 26.715L27.2659 20.1567L34.7843 20.1567L38.5944 26.715L34.8351 33.2228L27.2659 33.2228L27.2659 33.1724Z" fill="#054166"/>
<g clip-path="url(#clip0_1480_9858)">
<path d="M10.96 332.057L14.1604 332.057L29.4513 332.057L29.4513 312.382L26.2001 312.382L26.2001 322.673L20.358 322.673L20.358 305.117L17.1068 305.117L17.1068 325.902L26.2001 325.902L26.2001 328.828L14.1604 328.828L14.1604 305.117L10.9092 305.117L10.9092 332.057L10.96 332.057Z" fill="#054166"/>
<path d="M35.5969 322.673L35.5969 312.382L32.3457 312.382L32.3457 332.057L48.0938 332.057L51.2942 332.057L51.345 332.057L51.345 305.117L48.0938 305.117L48.0938 328.828L35.5969 328.828L35.5969 325.902L45.1474 325.902L45.1474 305.117L41.8962 305.117L41.8962 322.673L35.5969 322.673Z" fill="#054166"/>
<path d="M28.4343 343.861C26.6563 343.004 24.8783 342.6 23.0494 342.6C21.373 342.6 19.849 342.903 18.3758 343.508C16.9026 344.114 15.6326 344.971 14.515 346.081C13.3974 347.191 12.5338 348.452 11.9242 349.915C11.3146 351.378 11.0098 352.942 11.0098 354.556L11.0098 371.709L28.8407 371.709L28.8407 351.883C28.8407 350.571 29.0947 349.31 29.6027 348.15C30.1107 346.989 30.8219 345.98 31.6855 345.123C32.5491 344.265 33.6159 343.559 34.7843 343.054C35.9527 342.55 37.2227 342.297 38.5436 342.297C39.8644 342.297 41.1344 342.55 42.3028 343.054C43.4712 343.559 44.538 344.265 45.4016 345.123C46.2652 345.98 46.9764 346.989 47.4844 348.15C47.9924 349.31 48.2464 350.571 48.2464 351.883L48.2464 368.48L35.0891 368.48L35.0891 365.554L45.0968 365.554L45.0968 351.832C45.0968 350.924 44.9444 350.067 44.5888 349.259C44.2332 348.452 43.776 347.796 43.1664 347.191C42.5568 346.586 41.8456 346.132 41.0836 345.778C40.2708 345.425 39.458 345.274 38.5436 345.274C37.6291 345.274 36.7655 345.425 35.9527 345.778C35.1399 346.132 34.4795 346.586 33.8699 347.191C33.2603 347.796 32.8031 348.503 32.4475 349.259C32.0919 350.067 31.9395 350.874 31.9395 351.832L31.9395 371.659L51.4976 371.659L51.4976 351.832C51.4976 350.067 51.142 348.402 50.4816 346.838C49.8212 345.274 48.856 343.912 47.7384 342.752C46.57 341.591 45.1984 340.683 43.6236 340.027C42.0488 339.371 40.3724 339.018 38.5944 339.018C36.5115 339.018 34.6319 339.472 32.9047 340.33C31.0759 341.238 29.6027 342.398 28.4343 343.861ZM24.5227 352.589C24.9799 352.942 25.2847 353.346 25.4879 353.901L25.4879 354.052L25.4879 362.426L20.4078 362.426L20.4078 354.657C20.4078 353.951 20.6618 353.346 21.1698 352.892C21.6778 352.387 22.2874 352.135 22.9986 352.135C23.5575 352.085 24.0655 352.286 24.5227 352.589ZM26.6563 346.636C26.4531 347.09 26.3007 347.595 26.1483 348.049C25.9959 348.503 25.8435 349.007 25.7927 349.512C24.9799 349.058 24.0655 348.856 22.9986 348.856C22.1858 348.856 21.4238 349.007 20.7126 349.31C20.0014 349.613 19.3918 350.016 18.8838 350.521C18.3758 351.025 17.9694 351.63 17.6138 352.337C17.309 353.043 17.1566 353.8 17.1566 354.607L17.1566 365.605L25.4879 365.605L25.4879 368.531L14.1594 368.531L14.1594 354.607C14.1594 353.396 14.4134 352.286 14.8706 351.227C15.3278 350.167 15.9882 349.209 16.801 348.452C17.6138 347.645 18.5282 347.04 19.595 346.586C20.6618 346.132 21.7794 345.879 22.9986 345.879C24.3195 345.829 25.4879 346.081 26.6563 346.636ZM35.0891 362.426L35.0891 351.933C35.0891 351.025 35.3939 350.218 36.0543 349.562C36.7147 348.906 37.4767 348.553 38.442 348.553C39.4072 348.553 40.22 348.856 40.8296 349.562C41.49 350.218 41.7948 351.025 41.7948 351.933L41.7948 362.426L35.0891 362.426Z" fill="#054166"/>
<path d="M10.9092 124.209L10.9092 127.438L51.3971 127.437L51.3971 124.209L10.9092 124.209Z" fill="#054166"/>
<path d="M10.9092 130.414L10.9092 133.643L51.3971 133.643L51.3971 130.414L10.9092 130.414Z" fill="#054166"/>
<path d="M41.5419 82.4877C43.5232 84.102 45.098 86.0695 46.2664 88.4911C47.4348 90.8621 48.0444 93.435 48.0444 96.2097C48.0444 98.6312 47.5872 100.901 46.6728 103.02C45.7584 105.139 44.5392 107.006 43.0152 108.62C41.4911 110.234 39.6623 111.445 37.5795 112.353C35.4967 113.261 33.2615 113.715 30.9247 113.715C28.5879 113.715 26.3526 113.261 24.2698 112.353C22.187 111.445 20.3582 110.184 18.7834 108.62C17.2086 107.006 15.9894 105.19 15.075 103.02C14.1606 100.901 13.7034 98.6312 13.7034 96.2097C13.7034 93.435 14.313 90.8621 15.4814 88.4911C16.6498 86.12 18.2246 84.102 20.2566 82.4877L18.3262 79.9652L18.2754 79.9148C15.8878 81.8319 14.0082 84.1525 12.5857 86.9776C11.1633 89.8027 10.5029 92.8801 10.5029 96.2097C10.5029 99.0852 11.0617 101.759 12.1285 104.281C13.1953 106.804 14.6686 109.024 16.4974 110.89C18.377 112.757 20.5106 114.27 22.9998 115.38C25.489 116.49 28.1307 117.045 30.9247 117.045C33.7187 117.045 36.3603 116.49 38.8495 115.38C41.3387 114.27 43.5232 112.807 45.4028 110.89C47.2824 109.024 48.7556 106.804 49.8224 104.281C50.8892 101.759 51.448 99.0852 51.448 96.2097C51.448 92.8801 50.7368 89.8027 49.3144 86.9776C47.892 84.1525 45.9616 81.7814 43.5232 79.9148L43.5232 79.9652L41.5419 82.4877Z" fill="#054166"/>
<path d="M23.1519 104.131C22.1359 103.122 21.3738 101.911 20.815 100.549C20.2562 99.1869 19.9514 97.7238 19.9514 96.2104C19.9514 94.3942 20.307 92.7799 21.069 91.2664C21.831 89.753 22.8471 88.4918 24.1171 87.4323L22.0851 84.8594C20.4086 86.1711 19.1386 87.8359 18.1226 89.8034C17.1574 91.7709 16.6494 93.9402 16.6494 96.2104C16.6494 98.2283 17.005 100.095 17.767 101.861C18.529 103.626 19.545 105.14 20.815 106.451C22.0851 107.763 23.6091 108.823 25.3363 109.529C27.0635 110.286 28.8923 110.639 30.8735 110.639C32.8039 110.639 34.6835 110.286 36.4108 109.529C38.138 108.772 39.662 107.763 40.932 106.451C42.202 105.14 43.218 103.626 43.98 101.861C44.6912 100.095 45.0976 98.2283 45.0976 96.2104C45.0976 93.8897 44.5896 91.7709 43.6244 89.8034C42.6592 87.8359 41.3384 86.1711 39.662 84.8594L37.6808 87.4323C38.9508 88.4413 39.916 89.7025 40.678 91.2664C41.44 92.7799 41.7956 94.4447 41.7956 96.2104C41.7956 97.7238 41.4908 99.1869 40.932 100.549C40.3732 101.911 39.5604 103.122 38.5952 104.131C37.5792 105.14 36.4616 105.947 35.0899 106.552C33.7691 107.158 32.3467 107.41 30.8227 107.41C29.2987 107.41 27.8763 107.107 26.5555 106.552C25.3363 105.947 24.1679 105.14 23.1519 104.131Z" fill="#054166"/>
<path d="M15.9367 191.76C14.2094 193.576 12.8378 195.644 11.8726 197.965C10.9074 200.285 10.3994 202.808 10.3994 205.482C10.3994 208.105 10.9074 210.627 11.8726 212.948C12.8886 215.319 14.2094 217.388 15.9367 219.153C17.6639 220.969 19.6959 222.382 22.0327 223.542C24.3695 224.652 26.8587 225.308 29.5511 225.51L29.5511 216.126C28.2303 215.925 26.9603 215.521 25.7919 214.916C24.6235 214.26 23.6075 213.503 22.7439 212.544C21.8803 211.586 21.2199 210.527 20.7119 209.316C20.2039 208.105 19.9499 206.844 19.9499 205.482C19.9499 204.069 20.2039 202.808 20.7119 201.597C21.2199 200.386 21.8803 199.327 22.7439 198.368C23.6075 197.41 24.6235 196.603 25.7919 195.997C26.9603 195.342 28.2303 194.938 29.5511 194.787L29.5511 191.558C27.7731 191.76 26.0459 192.214 24.5219 193.021C22.9471 193.828 21.5755 194.837 20.4579 196.098C19.2895 197.359 18.3751 198.772 17.7147 200.386C17.0543 202.001 16.6987 203.716 16.6987 205.532C16.6987 207.348 17.0543 209.013 17.7147 210.627C18.3751 212.242 19.2895 213.654 20.4579 214.916C21.6263 216.177 22.9979 217.186 24.5219 217.993C25.0299 218.245 25.5887 218.497 26.0967 218.699L26.0967 221.777C25.1315 221.474 24.2171 221.121 23.3027 220.667C21.3723 219.708 19.6451 218.447 18.2227 216.984C16.8003 215.471 15.6827 213.755 14.819 211.788C14.0062 209.82 13.5998 207.752 13.5998 205.583C13.5998 203.413 14.0062 201.294 14.819 199.327C15.6318 197.359 16.8003 195.594 18.2227 194.131C19.6451 192.617 21.3723 191.407 23.3027 190.448C25.2331 189.49 27.3159 188.884 29.5511 188.733L29.5511 185.504C26.8587 185.706 24.3695 186.412 22.0327 187.522C19.6959 188.481 17.6639 189.944 15.9367 191.76Z" fill="#054166"/>
<path d="M36.6635 195.997C37.8319 196.653 38.848 197.409 39.7116 198.368C40.5752 199.326 41.2356 200.386 41.7436 201.597C42.2516 202.807 42.5056 204.119 42.5056 205.481C42.5056 206.843 42.2516 208.104 41.7436 209.315C41.2356 210.526 40.5752 211.585 39.7116 212.544C38.848 213.502 37.8828 214.31 36.6635 214.915C35.4951 215.571 34.2251 215.974 32.8535 216.126L32.8535 219.354C34.6315 219.153 36.3587 218.699 37.8828 217.891C39.4576 217.084 40.8292 216.075 41.9468 214.814C43.1152 213.553 44.0296 212.14 44.69 210.526C45.3504 208.912 45.706 207.196 45.706 205.431C45.706 203.614 45.4012 201.899 44.69 200.285C44.0296 198.67 43.1152 197.258 41.9468 195.997C40.7784 194.735 39.4068 193.727 37.8828 192.919C37.3747 192.667 36.8159 192.415 36.3079 192.213L36.3079 189.136C37.2731 189.438 38.1875 189.792 39.102 190.246C41.0324 191.204 42.7088 192.465 44.1312 193.928C45.5536 195.442 46.722 197.157 47.5348 199.125C48.3476 201.092 48.754 203.16 48.754 205.38C48.754 207.549 48.3476 209.668 47.5348 211.585C46.722 213.553 45.5536 215.268 44.1312 216.781C42.7088 218.295 41.0324 219.506 39.102 220.464C37.1715 221.423 35.0887 222.028 32.8535 222.179L32.8535 225.408C35.5459 225.206 38.0352 224.551 40.372 223.441C42.7088 222.28 44.7408 220.868 46.468 219.052C48.1952 217.286 49.5668 215.167 50.532 212.847C51.548 210.475 52.0052 208.003 52.0052 205.38C52.0052 202.706 51.4972 200.184 50.532 197.863C49.516 195.543 48.1952 193.474 46.468 191.658C44.7408 189.842 42.7088 188.379 40.372 187.269C38.0351 186.159 35.4951 185.503 32.8535 185.251L32.8535 194.635C34.2251 194.937 35.4443 195.341 36.6635 195.997Z" fill="#054166"/>
<path d="M10.9092 250.582L10.9092 253.811L41.8974 253.811L41.8974 256.888L10.9092 256.888L10.9092 260.117L45.1486 260.117L45.1486 231.311L41.8974 231.311L41.8974 250.582L10.9092 250.582Z" fill="#054166"/>
<path d="M48.1445 231.261L48.1445 260.117L51.3958 260.117L51.3958 231.261L48.1445 231.261Z" fill="#054166"/>
<path d="M16.1914 284.332L16.1914 284.382L16.1914 284.533C16.2422 286.501 16.6486 287.964 17.6138 289.175C18.6298 290.436 19.9507 291.092 21.6271 291.092C22.6431 291.092 23.5575 290.89 24.2687 290.537C24.9799 290.184 25.6403 289.679 26.1991 289.023C26.7579 288.367 27.2151 287.661 27.6215 286.804C28.0279 285.996 28.3835 285.088 28.7391 284.13L29.8059 281.456C30.5171 279.64 31.2283 278.177 31.8887 276.916C32.5999 275.705 33.3619 274.696 34.124 273.939C34.9368 273.182 35.7496 272.628 36.664 272.274C37.5784 271.921 38.5944 271.77 39.7628 271.77C42.3028 271.77 44.3348 272.779 45.8588 274.847C46.6208 275.907 47.2304 277.168 47.586 278.631C47.84 279.589 47.9924 280.598 48.0941 281.658L48.0941 297.297L51.3453 297.297L51.3453 281.153L51.3453 281.103C51.0405 277.874 50.1261 275.15 48.5005 272.981C46.3668 270.004 43.4712 268.541 39.7628 268.541C38.0356 268.541 36.5116 268.844 35.1908 269.399C33.87 269.954 32.7015 270.761 31.6855 271.77C30.6695 272.779 29.7551 274.04 28.9931 275.503C28.1803 276.966 27.4691 278.53 26.8087 280.296L25.6911 282.919C25.2847 283.978 24.9291 284.836 24.5735 285.492C24.2179 286.148 23.9131 286.602 23.6083 286.955C23.3035 287.308 22.9987 287.51 22.6939 287.661C22.3891 287.762 22.0335 287.813 21.6271 287.813C21.4239 287.813 21.2207 287.762 20.9667 287.661C20.7127 287.56 20.4587 287.359 20.2047 287.106C19.9507 286.854 19.7475 286.45 19.5442 285.996C19.4934 285.795 19.3918 285.542 19.3918 285.24L19.3918 268.491L16.1406 268.491L16.1914 284.332Z" fill="#054166"/>
<path d="M10.7549 284.534C10.7549 286.299 11.0597 287.964 11.5677 289.528C12.1265 291.142 12.8886 292.505 13.8538 293.665C14.819 294.825 15.9874 295.733 17.359 296.339C18.7306 296.995 20.2038 297.297 21.7786 297.297C23.5566 297.297 25.0806 296.995 26.3506 296.44C27.6207 295.834 28.7383 295.077 29.6527 294.069C30.6179 293.06 31.3799 291.95 32.0911 290.688C32.7515 289.427 33.4119 288.116 33.9199 286.703L34.9867 283.979C35.4439 282.869 35.8503 281.91 36.2059 281.154C36.6123 280.397 36.9679 279.792 37.3235 279.388C37.6791 278.934 38.0855 278.631 38.4411 278.48C38.8475 278.278 39.2539 278.228 39.7619 278.228C40.4223 278.228 40.9304 278.48 41.3368 278.934C41.7432 279.388 41.9972 279.943 42.2004 280.548C42.4036 281.154 42.5052 281.759 42.556 282.364C42.556 282.617 42.6068 282.818 42.6068 283.02L42.6068 297.348L45.858 297.348L45.858 282.415C45.858 282.264 45.858 282.163 45.858 282.112C45.7564 281.154 45.604 280.296 45.4008 279.539C45.0452 278.429 44.588 277.521 43.9784 276.866C43.3688 276.21 42.7084 275.705 41.9972 275.403C41.2352 275.1 40.5239 274.949 39.7619 274.949C38.6443 274.949 37.7299 275.15 36.9171 275.604C36.1043 276.008 35.4439 276.613 34.8343 277.32C34.2247 278.026 33.7167 278.883 33.2595 279.792C32.8023 280.75 32.3451 281.759 31.8879 282.869L30.8211 285.543C30.2115 287.107 29.5511 288.469 28.9415 289.528C28.3319 290.638 27.6207 291.496 26.9095 292.202C26.1982 292.858 25.3854 293.362 24.5726 293.665C23.709 293.968 22.7438 294.119 21.677 294.119C20.5594 294.119 19.4926 293.867 18.5274 293.413C17.5622 292.959 16.7494 292.252 16.089 291.395C15.4286 290.537 14.8698 289.528 14.4634 288.317C14.057 287.107 13.9046 285.845 13.9046 284.382C13.9046 284.13 13.9046 283.878 13.8538 283.676L13.8538 268.592L10.6025 268.592L10.7549 284.534Z" fill="#054166"/>
<path d="M33.1079 155.941L33.1079 144.388L42.9124 144.388C42.9124 144.388 45.2492 146.658 46.824 150.392C47.3828 151.804 48.1956 154.831 48.1956 157.454C48.1956 159.876 47.7384 162.146 46.8748 164.215C46.0112 166.333 44.792 168.15 43.2172 169.713C41.6932 171.277 39.8644 172.539 37.8324 173.447C35.7496 174.355 33.5651 174.809 31.2283 174.809C28.8915 174.809 26.6563 174.355 24.6243 173.447C22.5415 172.539 20.7635 171.277 19.2394 169.713C17.7154 168.15 16.4962 166.283 15.5818 164.215C14.6674 162.096 14.2102 159.876 14.2102 157.454C14.2102 155.033 14.6674 152.813 15.531 150.745C16.3946 148.676 17.563 146.86 19.087 145.296L16.7502 143.026C14.9214 144.893 13.5498 147.062 12.483 149.534C11.467 152.006 10.959 154.629 10.959 157.454C10.959 160.28 11.467 163.004 12.5846 165.476C13.6514 167.998 15.0738 170.167 16.9026 172.034C18.7314 173.901 20.8651 175.364 23.3543 176.474C25.8435 177.533 28.4343 178.088 31.2283 178.088C34.0223 178.088 36.664 177.533 39.1024 176.474C41.5408 175.414 43.6744 173.901 45.554 172.034C47.3828 170.167 48.8561 167.998 49.9229 165.476C50.9897 162.953 51.5485 160.28 51.5485 157.454C51.5485 155.537 51.2945 153.671 50.7865 151.905C50.1769 149.685 49.4657 148.121 48.8053 146.961C48.1448 145.801 46.3668 142.774 43.8268 141.16L33.1079 141.16L32.4475 141.16L29.7043 141.16L29.7043 155.941L33.1079 155.941Z" fill="#054166"/>
<path d="M23.4556 165.273C22.4903 164.264 21.7283 163.103 21.1187 161.741C20.5599 160.379 20.2551 158.967 20.2551 157.403C20.2551 155.889 20.5599 154.426 21.1187 153.064C21.6775 151.702 22.4395 150.542 23.4047 149.482L21.0679 147.212C19.7979 148.524 18.7819 150.037 18.0707 151.803C17.3595 153.518 17.0039 155.385 17.0039 157.352C17.0039 159.32 17.3595 161.186 18.1215 162.902C18.8835 164.617 19.8487 166.181 21.1695 167.492C22.4395 168.804 23.9636 169.864 25.6908 170.57C27.418 171.327 29.2468 171.68 31.1772 171.68C33.1076 171.68 34.9364 171.327 36.6636 170.57C38.3909 169.813 39.8641 168.804 41.1849 167.492C42.4549 166.181 43.4709 164.667 44.2329 162.902C44.9441 161.186 45.3505 159.32 45.3505 157.352C45.3505 155.99 45.1981 154.679 44.8425 153.468C44.4869 152.207 43.5217 150.289 43.2169 149.785C42.6581 148.675 41.7945 147.515 41.2865 146.909L35.6984 146.909L35.6984 150.037L35.6984 155.889L39.1021 155.889L39.1021 150.037L39.3053 150.037C40.1689 151.046 40.8293 152.156 41.2865 153.367C41.7437 154.628 41.9977 155.94 41.9977 157.352C41.9977 158.866 41.6929 160.329 41.1341 161.691C40.5753 163.053 39.7625 164.213 38.7973 165.222C37.7813 166.231 36.6636 167.038 35.3428 167.593C34.022 168.199 32.6504 168.451 31.1264 168.451C29.6024 168.451 28.18 168.148 26.8592 167.593C25.5892 167.089 24.4716 166.282 23.4556 165.273Z" fill="#054166"/>
</g>
<defs>
<clipPath id="clip0_1480_9858">
<rect width="298.207" height="60.7064" fill="white" transform="translate(0.646484 378.477) rotate(-90)"/>
</clipPath>
</defs>
</svg>
